<?xml version="1.0" standalone="no"?>
<!DOCTYPE svg PUBLIC "-//W3C//DTD SVG 20010904//EN"
 "http://www.w3.org/TR/2001/REC-SVG-20010904/DTD/svg10.dtd">
<svg version="1.0" xmlns="http://www.w3.org/2000/svg"
 width="550.000000pt" height="550.000000pt" viewBox="0 0 550.000000 550.000000"
 preserveAspectRatio="xMidYMid meet">
<metadata>
Created by potrace 1.11, written by Peter Selinger 2001-2013
</metadata>
<g transform="translate(0.000000,550.000000) scale(0.100000,-0.100000)"
fill="#000000" stroke="none">
<path d="M2635 5481 c-103 -49 -148 -170 -101 -271 19 -43 50 -80 66 -80 12 0
10 -81 -3 -145 -3 -11 -7 -41 -11 -66 -4 -25 -9 -57 -11 -70 -2 -13 -6 -42
-10 -64 -14 -98 -35 -226 -51 -320 -3 -16 -7 -43 -9 -60 -22 -184 -36 -242
-56 -229 -14 8 -158 7 -221 -2 -29 -4 -60 -8 -68 -9 -198 -26 -439 -128 -589
-250 -54 -44 -117 -102 -141 -130 -14 -16 -32 -36 -40 -45 -19 -20 -72 -89
-85 -112 -5 -9 -27 -45 -48 -78 -20 -34 -37 -68 -37 -76 0 -8 -5 -14 -12 -14
-6 0 -9 -3 -6 -6 4 -3 -5 -31 -19 -62 -14 -31 -26 -64 -28 -72 -2 -8 -10 -42
-19 -75 -18 -71 -26 -116 -31 -170 -6 -57 -6 -225 -1 -255 3 -14 7 -45 10 -70
10 -83 62 -253 100 -325 9 -16 16 -36 16 -42 0 -7 3 -13 8 -13 4 0 18 -23 31
-50 14 -28 28 -50 31 -50 4 0 12 -11 18 -25 12 -27 40 -60 120 -147 59 -63 59
-59 0 -129 -20 -24 -96 -116 -169 -204 -73 -88 -135 -162 -138 -165 -3 -3 -33
-39 -66 -80 -33 -41 -67 -82 -76 -90 -16 -15 -56 -87 -57 -103 -1 -4 -10 -33
-22 -64 -11 -30 -19 -57 -18 -58 2 -2 32 9 68 23 86 34 121 71 413 425 l238
288 42 -25 c123 -76 261 -136 384 -167 52 -13 53 -13 48 -46 -3 -18 -7 -50
-10 -70 -3 -21 -10 -63 -15 -93 -8 -52 -13 -81 -25 -167 -3 -21 -10 -60 -15
-88 -5 -27 -11 -68 -14 -90 -3 -22 -7 -49 -10 -60 -2 -11 -7 -40 -10 -65 -3
-25 -10 -70 -15 -100 -5 -30 -7 -68 -5 -83 8 -69 16 -111 23 -131 5 -11 6 -27
4 -34 -3 -7 1 -10 11 -6 24 9 94 128 106 177 5 24 12 64 15 88 3 24 10 73 16
109 7 36 13 79 14 95 2 17 4 30 5 30 1 0 3 16 6 35 2 19 9 61 15 93 5 32 12
74 14 95 3 20 8 53 11 72 4 19 8 44 9 55 5 33 17 109 20 125 2 8 4 18 4 21 1
3 43 6 94 6 116 0 181 8 282 34 165 42 287 97 418 187 45 32 52 33 165 39 64
3 122 5 127 5 18 1 189 -13 215 -17 14 -2 48 -6 75 -10 53 -6 90 -12 90 -15 0
-1 12 -3 26 -5 33 -4 105 -24 138 -37 14 -6 32 -12 39 -14 16 -3 81 -52 105
-79 14 -16 17 -32 13 -79 -5 -71 -32 -104 -121 -146 -55 -26 -220 -82 -276
-94 -13 -3 -42 -10 -64 -15 -22 -5 -51 -12 -65 -15 -14 -2 -59 -11 -100 -20
-41 -8 -86 -17 -100 -20 -65 -13 -188 -59 -254 -94 -112 -60 -171 -117 -213
-200 -79 -160 55 -346 302 -417 33 -9 74 -19 90 -21 17 -2 41 -6 55 -9 14 -3
111 -8 215 -10 250 -6 442 -14 496 -21 78 -10 163 -23 184 -27 158 -36 256
-95 275 -168 6 -20 8 -43 6 -50 -2 -8 -7 -26 -10 -40 -10 -47 -83 -109 -171
-146 -120 -50 -250 -73 -420 -75 -64 0 -82 -9 -96 -46 -13 -35 16 -80 58 -88
33 -6 228 1 273 10 14 2 43 7 65 10 22 3 58 10 80 16 22 6 49 13 59 15 11 3
53 20 93 39 144 69 226 180 230 311 1 61 -2 77 -29 127 -34 64 -91 121 -159
161 -45 26 -170 71 -224 81 -16 3 -41 7 -55 10 -77 16 -243 21 -505 16 -84 -1
-227 6 -285 16 -200 32 -278 62 -347 133 -35 36 -36 106 -2 155 47 68 168 121
404 176 112 26 300 73 415 104 28 8 145 58 203 87 162 82 227 223 162 355 -45
92 -128 161 -260 214 -22 9 -143 37 -190 44 -154 23 -156 24 -345 31 -85 4
-156 8 -157 9 -1 0 13 18 30 38 115 133 204 310 248 492 25 105 33 187 32 313
-1 89 -6 137 -28 254 -34 183 -172 437 -312 576 l-32 32 27 33 c14 18 29 35
32 38 3 3 34 41 69 85 35 44 69 85 75 90 6 6 27 30 46 55 19 25 37 47 41 50 3
3 50 59 104 125 106 130 165 200 208 249 15 17 27 33 27 37 0 4 19 4 43 2 91
-11 181 40 218 122 54 118 -17 257 -147 286 -91 20 -184 -22 -225 -103 -26
-52 -32 -116 -15 -166 l15 -41 -61 -73 c-33 -40 -77 -93 -97 -117 -20 -24 -40
-49 -46 -55 -5 -6 -30 -36 -55 -66 -24 -30 -52 -64 -62 -75 -9 -11 -67 -81
-128 -155 -62 -74 -128 -154 -148 -177 l-37 -43 -59 40 c-79 54 -224 123 -314
150 l-74 22 6 42 c9 74 37 251 41 266 2 8 6 38 10 65 3 28 12 88 20 135 8 47
17 103 20 125 2 22 7 51 10 65 3 14 7 45 10 70 3 25 9 61 13 80 5 19 9 38 10
43 1 4 2 17 2 30 0 17 10 28 39 40 99 44 149 152 118 254 -13 42 -85 123 -109
123 -9 0 -19 4 -22 8 -10 17 -110 12 -151 -7z"/>
</g>
</svg>
